<?xml version="1.0" encoding="UTF-8"?><svg id="Layer_2" xmlns="http://www.w3.org/2000/svg" viewBox="0 0 32.33 39.43"><defs><style>.cls-1{fill:#f1f2f2;}</style></defs><g id="Layer_1-2"><g><rect class="cls-1" x="13.81" y="10.68" width="4.97" height="12.5" rx="2.1" ry="2.1"/><g><path class="cls-1" d="M.06,8.41h0c-.24,.93,.29,1.89,1.17,2.14l12.32,3.47c.88,.25,1.79-.3,2.03-1.23h0c.24-.93-.29-1.89-1.17-2.14L2.09,7.18c-.88-.25-1.79,.3-2.03,1.23Z"/><path class="cls-1" d="M32.27,8.41h0c.24,.93-.29,1.89-1.17,2.14l-12.32,3.47c-.88,.25-1.79-.3-2.03-1.23h0c-.24-.93,.29-1.89,1.17-2.14l12.32-3.47c.88-.25,1.79,.3,2.03,1.23Z"/></g><g><path class="cls-1" d="M16.3,19.57h0c.79,.5,1.06,1.61,.61,2.47l-8.7,16.47c-.46,.87-1.47,1.16-2.26,.66h0c-.79-.5-1.06-1.61-.61-2.47L14.04,20.23c.46-.87,1.47-1.16,2.26-.66Z"/><path class="cls-1" d="M16.3,19.57h0c-.79,.5-1.06,1.61-.61,2.47l8.7,16.47c.46,.87,1.47,1.16,2.26,.66h0c.79-.5,1.06-1.61,.61-2.47l-8.7-16.47c-.46-.87-1.47-1.16-2.26-.66Z"/></g><rect class="cls-1" x="11.8" y="0" width="9" height="9" rx="4.5" ry="4.5"/></g></g></svg>